<svg width="430" height="430" viewBox="0 0 430 430" fill="none" xmlns="http://www.w3.org/2000/svg">
<path d="M290.5 181.35V321.45C290.5 342.05 274.2 359.15 253.5 361.45H145.1C124.3 359.15 108.1 342.05 108.1 321.45V181.35H290.5Z" fill="#646E78"/>
<g style="mix-blend-mode:multiply" opacity="0.5">
<path d="M225 361.45H145.1C124.3 359.15 108.1 342.05 108.1 321.45V181.35H136C136 181.35 127.2 361.45 225 361.45Z" fill="#646E78"/>
</g>
<path d="M246.9 242.85V280.35H196.2V242.85L205 220.05H238L246.9 242.85Z" fill="#EBE6EF"/>
<g style="mix-blend-mode:multiply" opacity="0.5">
<path d="M222.9 280.35H196.2V242.85L205.1 219.95H209.8C209.7 220.05 202.2 280.35 222.9 280.35Z" fill="#EBE6EF"/>
</g>
<path d="M221.5 181.65V220.05" stroke="#121331" stroke-width="7" stroke-miterlimit="10" stroke-linecap="round" stroke-linejoin="round"/>
<path d="M246.9 242.85V280.35H196.2V242.85L205 220.05H238L246.9 242.85Z" stroke="#121331" stroke-width="7" stroke-miterlimit="10" stroke-linecap="round" stroke-linejoin="round"/>
<path d="M290.5 181.35V321.45C290.5 343.65 271.7 361.75 248.7 361.75H149.9C126.9 361.75 108.1 343.65 108.1 321.45V181.35H290.5Z" stroke="#121331" stroke-width="7" stroke-miterlimit="10" stroke-linecap="round" stroke-linejoin="round"/>
<path d="M290.5 181.35H319.6C341.6 181.35 359.6 198.75 359.6 219.95V232.95C359.6 254.15 341.6 271.55 319.6 271.55H290.5" stroke="#121331" stroke-width="7" stroke-miterlimit="10" stroke-linecap="round" stroke-linejoin="round"/>
<path d="M337.3 361.45H70.3999" stroke="#121331" stroke-width="7" stroke-miterlimit="10" stroke-linecap="round" stroke-linejoin="round"/>
<path d="M164.2 69.25C164.2 80.05 158.2 80.05 158.2 90.85C158.2 101.65 164.2 101.65 164.2 112.45C164.2 123.25 158.2 123.25 158.2 134.05" stroke="#121331" stroke-width="7" stroke-miterlimit="10" stroke-linecap="round" stroke-linejoin="round"/>
<path d="M207.8 69.25C207.8 80.05 201.8 80.05 201.8 90.85C201.8 101.65 207.8 101.65 207.8 112.45C207.8 123.25 201.8 123.25 201.8 134.05" stroke="#121331" stroke-width="7" stroke-miterlimit="10" stroke-linecap="round" stroke-linejoin="round"/>
<path d="M251.5 69.25C251.5 80.05 245.5 80.05 245.5 90.85C245.5 101.65 251.5 101.65 251.5 112.45C251.5 123.25 245.5 123.25 245.5 134.05" stroke="#121331" stroke-width="7" stroke-miterlimit="10" stroke-linecap="round" stroke-linejoin="round"/>
</svg>
